<mxfile host="65bd71144e" scale="10" border="0">
    <diagram id="i2QI7aNegimyWd-MbvmW" name="Page-1">
        <mxGraphModel dx="239" dy="494" grid="1" gridSize="10" guides="1" tooltips="1" connect="1" arrows="1" fold="1" page="1" pageScale="1" pageWidth="827" pageHeight="1169" background="#FFFFFF" math="0" shadow="0">
            <root>
                <mxCell id="0"/>
                <mxCell id="1" parent="0"/>
                <mxCell id="2" value="0x78" style="rounded=0;whiteSpace=wrap;html=1;" parent="1" vertex="1">
                    <mxGeometry x="40" y="120" width="80" height="40" as="geometry"/>
                </mxCell>
                <mxCell id="3" value="0x56" style="rounded=0;whiteSpace=wrap;html=1;" parent="1" vertex="1">
                    <mxGeometry x="120" y="120" width="80" height="40" as="geometry"/>
                </mxCell>
                <mxCell id="14" style="edgeStyle=none;html=1;exitX=0;exitY=1;exitDx=0;exitDy=0;entryX=0.5;entryY=0;entryDx=0;entryDy=0;shadow=0;labelBackgroundColor=#000000;labelBorderColor=none;fontColor=#000000;spacingTop=2;spacingLeft=2;spacingBottom=2;spacingRight=2;strokeColor=#000000;strokeWidth=3;targetPerimeterSpacing=0;endSize=8;startSize=8;startArrow=classic;startFill=1;endArrow=classic;endFill=1;" edge="1" parent="1" source="5" target="9">
                    <mxGeometry relative="1" as="geometry"/>
                </mxCell>
                <mxCell id="5" value="0x34" style="rounded=0;whiteSpace=wrap;html=1;" parent="1" vertex="1">
                    <mxGeometry x="200" y="120" width="80" height="40" as="geometry"/>
                </mxCell>
                <mxCell id="6" value="0x12" style="rounded=0;whiteSpace=wrap;html=1;" parent="1" vertex="1">
                    <mxGeometry x="280" y="120" width="80" height="40" as="geometry"/>
                </mxCell>
                <mxCell id="7" value="u8" style="text;html=1;align=center;verticalAlign=middle;resizable=0;points=[];autosize=1;strokeColor=none;fillColor=none;fontColor=#000000;" parent="1" vertex="1">
                    <mxGeometry x="35" y="90" width="30" height="20" as="geometry"/>
                </mxCell>
                <mxCell id="9" value="0x12345678" style="rounded=0;whiteSpace=wrap;html=1;" parent="1" vertex="1">
                    <mxGeometry x="40" y="280" width="320" height="40" as="geometry"/>
                </mxCell>
                <mxCell id="10" value="u32" style="text;html=1;align=center;verticalAlign=middle;resizable=0;points=[];autosize=1;strokeColor=none;fillColor=none;fontColor=#000000;" parent="1" vertex="1">
                    <mxGeometry x="30" y="250" width="40" height="20" as="geometry"/>
                </mxCell>
                <mxCell id="11" value="transmute" style="text;html=1;align=center;verticalAlign=middle;resizable=0;points=[];autosize=1;strokeColor=none;fillColor=none;fontColor=#000000;" parent="1" vertex="1">
                    <mxGeometry x="130" y="210" width="70" height="20" as="geometry"/>
                </mxCell>
            </root>
        </mxGraphModel>
    </diagram>
</mxfile>